<?xml version="1.0" standalone="no"?>
<!DOCTYPE svg PUBLIC "-//W3C//DTD SVG 20010904//EN"
 "http://www.w3.org/TR/2001/REC-SVG-20010904/DTD/svg10.dtd">
<svg version="1.0" xmlns="http://www.w3.org/2000/svg"
 width="512.000000pt" height="512.000000pt" viewBox="0 0 512.000000 512.000000"
 preserveAspectRatio="xMidYMid meet">

<g transform="translate(0.000000,512.000000) scale(0.100000,-0.100000)"
fill="#000000" stroke="none">
<path d="M2455 5114 c-154 -23 -256 -60 -386 -140 -285 -177 -481 -418 -550
-679 -40 -152 -36 -365 12 -543 23 -88 23 -82 -1 -82 -63 0 -101 -48 -108
-135 -6 -81 10 -173 58 -320 45 -137 91 -221 137 -250 27 -17 34 -31 47 -85
28 -117 93 -263 166 -370 54 -79 163 -194 240 -252 80 -61 222 -130 315 -154
101 -26 257 -24 358 4 326 92 610 396 708 759 18 65 26 81 53 98 42 28 89 110
125 219 68 205 86 335 57 410 -19 49 -51 76 -91 76 -14 0 -25 2 -25 4 0 3 9
42 19 88 33 140 44 268 38 436 -6 176 -19 239 -72 349 -43 87 -122 164 -193
187 -40 13 -59 29 -100 81 -96 120 -279 233 -447 276 -78 20 -288 33 -360 23z"/>
<path d="M1710 2159 c-235 -153 -528 -284 -865 -388 -141 -43 -202 -77 -269
-145 -95 -99 -162 -287 -173 -491 -6 -110 16 -410 41 -560 l11 -69 144 -72
c805 -405 1864 -534 2866 -349 374 69 747 192 1057 349 125 63 143 74 149 101
12 46 39 325 46 465 16 328 -81 584 -265 701 -26 16 -105 48 -177 70 -309 95
-622 233 -837 368 -53 34 -100 61 -106 61 -5 0 -98 -282 -207 -627 -240 -760
-260 -820 -268 -807 -3 6 -45 120 -92 254 l-85 242 55 87 c188 296 150 478
-107 522 -121 20 -255 -15 -315 -85 -40 -45 -47 -70 -41 -154 7 -83 41 -169
113 -283 l55 -87 -86 -243 c-47 -134 -88 -247 -92 -251 -9 -9 -30 55 -277 837
-103 325 -190 593 -193 596 -4 3 -41 -16 -82 -42z"/>
</g>
</svg>
