<?xml version="1.0" standalone="no"?>
<!DOCTYPE svg PUBLIC "-//W3C//DTD SVG 20010904//EN"
 "http://www.w3.org/TR/2001/REC-SVG-20010904/DTD/svg10.dtd">
<svg version="1.0" xmlns="http://www.w3.org/2000/svg"
 width="512.000000pt" height="512.000000pt" viewBox="0 0 512.000000 512.000000"
 preserveAspectRatio="xMidYMid meet">

<g transform="translate(0.000000,512.000000) scale(0.100000,-0.100000)"
fill="#000000" stroke="none">
<path d="M360 5107 c-49 -16 -133 -102 -148 -153 -17 -60 -17 -2488 0 -2548
16 -55 99 -138 154 -154 32 -9 533 -12 2196 -12 2430 0 2212 -8 2291 80 24 26
49 66 55 88 17 57 17 2487 0 2544 -6 22 -31 62 -55 88 -79 88 140 80 -2297 79
-1545 -1 -2171 -4 -2196 -12z m4375 -172 l25 -24 0 -1231 0 -1231 -25 -24 -24
-25 -2151 0 -2151 0 -24 25 -25 24 0 1231 0 1231 25 24 24 25 2151 0 2151 0
24 -25z"/>
<path d="M2355 4231 c-11 -5 -31 -21 -45 -36 l-25 -27 0 -289 0 -289 33 -32
c27 -28 39 -33 80 -33 44 0 61 10 242 131 107 72 204 141 215 154 14 15 20 36
20 70 0 34 -6 55 -20 70 -11 13 -107 81 -214 153 -197 131 -237 149 -286 128z
m210 -268 c63 -42 115 -79 115 -82 0 -5 -86 -63 -211 -144 l-29 -19 0 161 c0
89 2 161 5 161 3 0 57 -34 120 -77z"/>
<path d="M2505 2935 c-24 -23 -25 -31 -25 -135 0 -104 1 -112 25 -135 15 -16
36 -25 55 -25 19 0 40 9 55 25 24 23 25 31 25 135 0 104 -1 112 -25 135 -15
16 -36 25 -55 25 -19 0 -40 -9 -55 -25z"/>
<path d="M705 2855 c-16 -15 -25 -36 -25 -55 0 -19 9 -40 25 -55 l24 -25 796
0 795 0 0 80 0 80 -795 0 -796 0 -24 -25z"/>
<path d="M2825 2855 c-16 -15 -25 -36 -25 -55 0 -19 9 -40 25 -55 15 -16 36
-25 55 -25 19 0 40 9 55 25 16 15 25 36 25 55 0 19 -9 40 -25 55 -15 16 -36
25 -55 25 -19 0 -40 -9 -55 -25z"/>
<path d="M3126 2859 c-37 -29 -37 -89 0 -118 35 -27 66 -26 100 2 20 17 27 33
27 57 0 24 -7 40 -27 57 -34 28 -65 29 -100 2z"/>
<path d="M3423 2860 c-29 -27 -37 -56 -23 -89 21 -53 86 -66 125 -26 70 69
-31 182 -102 115z"/>
<path d="M3715 2855 c-16 -15 -25 -36 -25 -55 0 -36 38 -80 69 -80 35 0 69 22
81 51 33 78 -65 144 -125 84z"/>
<path d="M4014 2857 c-20 -17 -27 -33 -27 -57 0 -24 7 -40 27 -57 34 -28 65
-29 100 -2 37 29 37 89 0 118 -35 27 -66 26 -100 -2z"/>
<path d="M4305 2855 c-16 -15 -25 -36 -25 -55 0 -19 9 -40 25 -55 15 -16 36
-25 55 -25 19 0 40 9 55 25 16 15 25 36 25 55 0 19 -9 40 -25 55 -15 16 -36
25 -55 25 -19 0 -40 -9 -55 -25z"/>
<path d="M1124 1831 c-48 -12 -133 -62 -160 -94 -14 -17 -37 -53 -52 -81 -23
-45 -27 -65 -30 -173 l-4 -123 43 0 c24 0 60 -3 81 -6 l36 -6 4 115 c3 125 11
146 72 191 25 19 44 21 231 24 230 4 254 -1 301 -64 27 -35 29 -44 32 -152 l4
-114 36 6 c21 3 57 6 81 6 l43 0 -4 123 c-4 107 -8 128 -31 173 -38 75 -69
107 -139 145 l-63 34 -225 2 c-124 1 -239 -2 -256 -6z"/>
<path d="M2324 1831 c-48 -12 -133 -62 -160 -94 -14 -17 -37 -53 -52 -81 -23
-45 -27 -65 -30 -173 l-4 -123 43 0 c24 0 60 -3 81 -6 l36 -6 4 115 c3 125 11
146 72 191 25 19 44 21 231 24 230 4 254 -1 301 -64 27 -35 29 -44 32 -152 l4
-114 36 6 c21 3 57 6 81 6 l43 0 -4 123 c-4 107 -8 128 -31 173 -38 75 -69
107 -139 145 l-63 34 -225 2 c-124 1 -239 -2 -256 -6z"/>
<path d="M3524 1831 c-48 -12 -133 -62 -160 -94 -14 -17 -37 -53 -52 -81 -23
-45 -27 -65 -30 -173 l-4 -123 43 0 c24 0 60 -3 81 -6 l36 -6 4 115 c3 125 11
146 72 191 25 19 44 21 231 24 230 4 254 -1 301 -64 27 -35 29 -44 32 -152 l4
-114 36 6 c21 3 57 6 81 6 l43 0 -4 123 c-4 107 -8 128 -31 173 -38 75 -69
107 -139 145 l-63 34 -225 2 c-124 1 -239 -2 -256 -6z"/>
<path d="M524 1191 c-48 -12 -133 -62 -160 -94 -14 -17 -37 -53 -52 -81 l-27
-51 -3 -458 -3 -457 25 -25 25 -25 431 0 431 0 25 25 25 25 -3 458 -3 457 -27
51 c-40 76 -70 107 -140 145 l-63 34 -225 2 c-124 1 -239 -2 -256 -6z m460
-165 c18 -8 46 -31 62 -52 l29 -37 3 -229 3 -228 -320 0 -321 0 0 214 c0 128
4 226 11 243 14 37 47 73 84 89 44 19 403 19 449 0z m96 -786 l0 -80 -320 0
-320 0 0 80 0 80 320 0 320 0 0 -80z"/>
<path d="M1724 1191 c-48 -12 -133 -62 -160 -94 -14 -17 -37 -53 -52 -81 l-27
-51 -3 -458 -3 -457 25 -25 25 -25 431 0 431 0 25 25 25 25 -3 458 -3 457 -27
51 c-40 76 -70 107 -140 145 l-63 34 -225 2 c-124 1 -239 -2 -256 -6z m460
-165 c18 -8 46 -31 62 -52 l29 -37 3 -229 3 -228 -320 0 -321 0 0 214 c0 128
4 226 11 243 14 37 47 73 84 89 44 19 403 19 449 0z m96 -786 l0 -80 -320 0
-320 0 0 80 0 80 320 0 320 0 0 -80z"/>
<path d="M2924 1191 c-48 -12 -133 -62 -160 -94 -14 -17 -37 -53 -52 -81 l-27
-51 -3 -458 -3 -457 25 -25 25 -25 431 0 431 0 25 25 25 25 -3 458 -3 457 -27
51 c-40 76 -70 107 -140 145 l-63 34 -225 2 c-124 1 -239 -2 -256 -6z m460
-165 c18 -8 46 -31 62 -52 l29 -37 3 -229 3 -228 -320 0 -321 0 0 214 c0 128
4 226 11 243 14 37 47 73 84 89 44 19 403 19 449 0z m96 -786 l0 -80 -320 0
-320 0 0 80 0 80 320 0 320 0 0 -80z"/>
<path d="M4124 1191 c-48 -12 -133 -62 -160 -94 -14 -17 -37 -53 -52 -81 l-27
-51 -3 -458 -3 -457 25 -25 25 -25 431 0 431 0 25 25 25 25 -3 458 -3 457 -27
51 c-40 76 -70 107 -140 145 l-63 34 -225 2 c-124 1 -239 -2 -256 -6z m460
-165 c18 -8 46 -31 62 -52 l29 -37 3 -229 3 -228 -320 0 -321 0 0 214 c0 128
4 226 11 243 14 37 47 73 84 89 44 19 403 19 449 0z m96 -786 l0 -80 -320 0
-320 0 0 80 0 80 320 0 320 0 0 -80z"/>
</g>
</svg>
