<?xml version="1.0" standalone="no"?>
<!DOCTYPE svg PUBLIC "-//W3C//DTD SVG 20010904//EN"
 "http://www.w3.org/TR/2001/REC-SVG-20010904/DTD/svg10.dtd">
<svg version="1.0" xmlns="http://www.w3.org/2000/svg"
 width="512.000000pt" height="512.000000pt" viewBox="0 0 512.000000 512.000000"
 preserveAspectRatio="xMidYMid meet">

<g transform="translate(0.000000,512.000000) scale(0.100000,-0.100000)"
fill="#000000" stroke="none">
<path d="M1600 4500 l0 -620 960 0 960 0 0 620 0 620 -960 0 -960 0 0 -620z
m1900 -5 l0 -515 -940 0 -940 0 0 515 0 515 940 0 940 0 0 -515z"/>
<path d="M1539 3757 c-48 -31 -83 -105 -74 -156 15 -90 84 -145 173 -138 64 5
99 28 130 88 40 76 9 174 -68 214 -44 23 -121 19 -161 -8z"/>
<path d="M3403 3751 c-50 -37 -67 -76 -61 -146 4 -44 11 -62 34 -86 45 -47 80
-62 136 -57 52 5 89 27 122 72 29 39 29 133 0 173 -58 79 -157 98 -231 44z"/>
<path d="M1848 3331 c-43 -105 -78 -195 -78 -201 0 -17 105 -61 165 -69 35 -5
64 -16 78 -29 21 -20 34 -22 150 -22 89 0 127 -3 127 -12 0 -6 -12 -51 -27
-100 l-26 -88 -179 0 c-98 0 -178 2 -178 4 0 2 7 23 15 46 20 57 20 57 -24 65
-21 3 -67 20 -101 36 -35 16 -64 28 -65 27 -6 -11 -165 -405 -165 -410 0 -5
13 -8 29 -8 77 0 113 -98 55 -148 -24 -21 -35 -23 -92 -20 l-65 3 -94 -224
c-51 -124 -93 -237 -93 -252 0 -14 -12 -44 -27 -65 -24 -36 -363 -842 -363
-864 0 -7 588 -10 1670 -10 1082 0 1670 3 1670 10 0 22 -339 828 -363 864 -15
21 -27 51 -27 65 0 15 -42 128 -93 252 l-94 224 -65 -3 c-57 -3 -68 -1 -92 20
-58 50 -22 148 55 148 16 0 29 4 29 8 0 8 -155 385 -165 402 -3 5 -33 -4 -66
-20 -34 -16 -79 -32 -100 -35 -44 -8 -44 -8 -24 -65 8 -23 15 -44 15 -46 0 -2
-80 -4 -178 -4 l-179 0 -26 88 c-33 109 -33 112 -3 112 21 0 27 -7 38 -47 l14
-48 113 -3 c75 -2 110 1 106 8 -3 6 -46 10 -100 10 -59 0 -96 4 -101 11 -4 7
-19 52 -34 100 l-28 89 173 0 173 0 12 -30 c10 -24 17 -29 34 -24 33 10 96 47
96 56 0 5 -35 94 -77 199 l-78 189 -635 0 -635 0 -77 -189z m556 -308 c-13
-43 -27 -88 -30 -100 -5 -19 -13 -23 -45 -23 -44 0 -44 0 -24 66 8 27 15 52
15 57 0 4 -58 7 -130 7 -71 0 -130 2 -130 4 0 1 5 17 11 35 l11 31 173 0 173
0 -24 -77z m-199 -475 c-15 -66 -23 -79 -47 -73 -13 3 -86 16 -163 30 -106 18
-142 21 -147 12 -4 -7 -31 -52 -60 -102 -48 -81 -57 -90 -86 -93 -17 -2 -32 1
-32 6 0 8 48 144 79 225 l11 27 226 0 226 0 -7 -32z m1201 -88 c24 -63 43
-121 43 -128 1 -9 -11 -12 -41 -10 -46 3 -42 -2 -102 161 l-18 47 -183 0
c-189 0 -195 1 -195 41 0 6 90 8 227 7 l226 -3 43 -115z m-1302 5 c109 -19
201 -36 203 -39 5 -5 -87 -189 -110 -220 -14 -19 -21 -18 -241 20 -139 23
-226 42 -224 49 2 6 32 61 68 122 54 93 68 111 85 107 11 -2 109 -20 219 -39z
m1217 -76 c24 -67 46 -126 47 -131 2 -4 -102 -7 -234 -6 l-237 3 -39 125 c-21
69 -38 126 -38 128 0 1 103 2 228 2 l228 0 45 -121z m367 -431 l60 -163 -296
-3 c-162 -1 -296 -1 -298 1 -2 1 -22 63 -44 137 -22 74 -45 147 -50 163 l-9
27 289 0 288 0 60 -162z m-1588 25 c0 -9 -10 -47 -22 -85 l-22 -68 -232 0
-231 0 -32 -85 -33 -85 -60 0 c-44 0 -59 3 -55 13 2 6 30 83 62 170 l58 157
283 0 c259 0 284 -1 284 -17z m994 -70 c15 -49 31 -99 35 -113 l8 -25 240 -3
241 -2 16 -40 c30 -75 49 -70 -279 -70 -162 0 -295 2 -295 3 0 3 -65 221 -96
320 -5 15 2 17 49 17 l55 0 26 -87z m-1644 -72 c0 -8 -40 -120 -65 -183 -6
-16 0 -18 65 -18 65 0 71 -2 65 -17 -4 -10 -14 -37 -22 -60 l-15 -43 -109 0
c-60 0 -109 3 -109 7 0 5 26 79 58 165 l57 158 38 0 c20 0 37 -4 37 -9z m726
-48 c-3 -10 -26 -85 -51 -167 -25 -83 -47 -151 -49 -153 -2 -2 -136 -2 -299
-1 l-296 3 59 157 c32 86 61 162 65 168 4 6 104 10 291 10 267 0 285 -1 280
-17z m1584 -128 c20 -55 40 -110 44 -123 l7 -22 -298 2 -298 3 -17 50 c-9 28
-17 53 -17 58 -1 4 112 7 249 7 193 0 250 3 250 13 0 6 -9 36 -20 65 l-20 53
41 -3 41 -3 38 -100z"/>
<path d="M1080 3418 c-26 -14 -57 -41 -75 -66 -40 -58 -43 -146 -6 -205 82
-133 278 -123 342 18 76 166 -99 335 -261 253z"/>
<path d="M1486 3421 c-68 -45 -90 -130 -75 -289 10 -104 45 -246 78 -310 19
-37 57 -79 65 -71 2 2 29 62 60 132 l56 129 -59 65 c-33 35 -77 98 -98 138
-32 62 -36 78 -28 101 6 16 22 35 36 43 40 23 81 1 108 -57 12 -26 31 -58 42
-72 l20 -25 -3 67 c-4 75 -21 107 -78 146 -40 27 -85 28 -124 3z"/>
<path d="M3510 3418 c-57 -39 -74 -71 -78 -146 l-3 -67 20 25 c11 14 30 46 42
72 27 58 68 80 108 57 14 -8 30 -27 36 -43 8 -23 4 -39 -28 -101 -21 -40 -65
-103 -98 -138 l-59 -65 56 -129 c31 -70 58 -130 60 -132 2 -2 13 4 25 15 98
89 160 490 92 604 -39 67 -114 88 -173 48z"/>
<path d="M3869 3420 c-66 -35 -109 -106 -109 -181 0 -14 12 -49 26 -77 35 -70
95 -107 176 -107 187 0 257 248 100 356 -48 32 -142 37 -193 9z"/>
<path d="M1512 3338 c-50 -50 68 -243 202 -330 107 -69 254 -99 289 -60 22 24
22 55 0 74 -10 8 -47 21 -83 28 -124 23 -223 97 -284 211 -16 30 -36 62 -44
72 -17 20 -62 23 -80 5z"/>
<path d="M3528 3333 c-8 -10 -28 -42 -44 -72 -61 -114 -160 -188 -284 -211
-72 -14 -100 -32 -100 -65 0 -80 165 -68 306 23 134 87 252 280 202 330 -18
18 -63 15 -80 -5z"/>
<path d="M1297 3084 l-29 -24 47 -168 c26 -92 53 -191 62 -220 13 -46 20 -56
49 -68 47 -20 59 -18 72 11 16 34 16 33 -15 37 -26 3 -28 10 -89 227 -35 123
-64 225 -66 226 -2 2 -16 -8 -31 -21z"/>
<path d="M3781 3074 c-107 -390 -117 -419 -144 -422 -31 -4 -31 -3 -15 -37 13
-29 25 -31 72 -11 29 12 36 22 49 68 63 222 109 390 106 391 -2 1 -16 13 -31
26 l-27 23 -10 -38z"/>
<path d="M1014 3016 c-17 -8 -44 -30 -59 -51 l-28 -36 16 -47 c25 -69 22 -138
-9 -200 l-26 -52 21 -106 c55 -270 132 -364 299 -364 l69 0 41 93 c23 52 44
101 48 110 4 12 -2 16 -27 19 -29 3 -33 8 -45 48 -10 35 -21 49 -48 64 -40 21
-155 135 -192 189 -46 69 -86 164 -79 189 13 42 46 68 85 68 43 0 66 -21 103
-95 14 -28 35 -61 47 -75 l21 -25 -4 72 c-7 118 -70 201 -160 209 -23 3 -56
-2 -73 -10z"/>
<path d="M3982 3013 c-67 -32 -111 -118 -111 -213 l0 -55 20 25 c12 14 32 47
46 75 37 74 60 95 103 95 41 0 74 -28 85 -70 17 -73 -174 -334 -282 -383 -16
-7 -28 -26 -37 -56 -12 -41 -16 -46 -45 -49 -25 -3 -31 -7 -27 -19 4 -9 25
-58 48 -110 l41 -93 69 0 c167 0 244 94 299 364 l21 106 -26 52 c-31 62 -34
131 -9 200 l16 47 -28 36 c-46 62 -118 80 -183 48z"/>
<path d="M635 2991 c-46 -21 -89 -62 -113 -106 -22 -40 -22 -150 0 -190 69
-130 232 -164 342 -73 100 82 102 250 5 332 -69 58 -157 72 -234 37z"/>
<path d="M4320 2999 c-111 -45 -170 -187 -121 -294 76 -168 309 -177 393 -16
62 118 15 256 -104 305 -42 18 -130 20 -168 5z"/>
<path d="M1050 2917 c-13 -7 -29 -25 -35 -41 -8 -24 -3 -39 33 -111 51 -99
138 -198 225 -255 119 -78 302 -115 347 -70 23 23 25 39 8 74 -12 29 -17 30
-108 46 -145 25 -280 131 -354 278 -25 50 -45 76 -62 82 -30 12 -24 12 -54 -3z"/>
<path d="M4013 2920 c-13 -6 -36 -37 -58 -79 -48 -96 -146 -199 -228 -239 -34
-17 -96 -37 -136 -43 -79 -13 -111 -35 -111 -76 0 -66 91 -82 227 -38 100 31
187 89 263 173 61 68 140 203 140 240 0 44 -55 79 -97 62z"/>
<path d="M778 2558 c-33 -12 -36 -35 -8 -71 41 -51 62 -118 67 -206 3 -47 11
-95 18 -106 14 -22 105 -91 105 -79 0 4 -23 89 -51 188 -90 325 -76 295 -131
274z"/>
<path d="M4281 2538 c-17 -56 -121 -434 -121 -442 0 -11 90 56 106 79 8 11 14
45 14 80 0 78 24 170 55 211 13 17 27 43 30 56 6 22 2 27 -26 37 -45 15 -46
15 -58 -21z"/>
<path d="M555 2532 c-51 -24 -78 -54 -107 -117 -20 -45 -23 -64 -22 -180 1
-154 21 -275 69 -425 43 -132 79 -184 154 -222 53 -27 59 -28 221 -28 l166 0
47 110 c26 60 50 116 53 125 5 13 -10 15 -113 15 l-119 0 -13 49 c-11 42 -19
54 -64 84 -143 97 -297 308 -297 408 0 71 66 114 131 86 27 -11 42 -29 71 -88
21 -41 49 -87 63 -104 l26 -30 -5 79 c-6 106 -42 178 -107 219 -60 37 -104 42
-154 19z"/>
<path d="M4431 2524 c-85 -43 -132 -137 -131 -262 l1 -47 25 30 c13 17 41 63
62 104 29 59 44 77 71 88 65 28 131 -15 131 -86 0 -100 -155 -313 -297 -408
-45 -30 -53 -42 -64 -84 l-13 -49 -119 0 c-103 0 -118 -2 -113 -15 3 -9 27
-65 53 -125 l47 -110 166 0 c159 0 168 1 218 26 75 37 115 94 157 225 48 149
68 270 69 424 1 116 -2 135 -22 180 -29 63 -57 93 -107 116 -53 25 -72 24
-134 -7z"/>
<path d="M600 2423 c-62 -23 -65 -76 -10 -182 120 -230 355 -390 573 -391 84
0 124 68 75 124 -18 21 -38 28 -95 36 -83 11 -158 39 -217 79 -71 49 -159 152
-205 240 -47 90 -74 111 -121 94z"/>
<path d="M4463 2420 c-13 -5 -37 -38 -57 -77 -45 -89 -64 -116 -123 -176 -91
-94 -180 -140 -306 -157 -57 -8 -77 -15 -94 -36 -50 -56 -10 -124 74 -124 164
1 355 100 478 248 69 83 135 208 135 254 0 54 -56 89 -107 68z"/>
<path d="M222 2198 c-7 -7 -12 -23 -12 -37 1 -37 205 -760 219 -774 8 -8 88
-13 266 -15 l254 -3 14 28 c8 15 18 38 21 51 l7 22 -245 0 -244 0 -11 33 c-5
17 -51 178 -100 356 -50 178 -96 330 -102 337 -14 17 -51 18 -67 2z"/>
<path d="M4831 2196 c-6 -7 -52 -159 -102 -337 -49 -178 -95 -339 -100 -356
l-11 -33 -244 0 -245 0 7 -22 c3 -13 13 -36 21 -51 l14 -28 254 3 c174 2 258
7 265 14 14 14 220 743 220 777 0 13 -5 28 -12 35 -16 16 -53 15 -67 -2z"/>
<path d="M985 2081 c9 -16 86 -41 168 -54 l78 -14 15 28 c8 16 14 33 14 39 0
6 -49 10 -141 10 -83 0 -138 -4 -134 -9z"/>
<path d="M3860 2080 c0 -6 6 -23 14 -39 l15 -28 78 14 c82 13 159 38 168 54 4
5 -51 9 -134 9 -92 0 -141 -4 -141 -10z"/>
<path d="M880 770 l0 -170 1680 0 1680 0 0 170 0 170 -1680 0 -1680 0 0 -170z"/>
<path d="M1130 270 l0 -270 160 0 160 0 0 270 0 270 -160 0 -160 0 0 -270z"/>
<path d="M3670 270 l0 -270 160 0 160 0 0 270 0 270 -160 0 -160 0 0 -270z"/>
</g>
</svg>
