<?xml version="1.0" standalone="no"?>
<!DOCTYPE svg PUBLIC "-//W3C//DTD SVG 20010904//EN"
 "http://www.w3.org/TR/2001/REC-SVG-20010904/DTD/svg10.dtd">
<svg version="1.0" xmlns="http://www.w3.org/2000/svg"
 width="512.000000pt" height="512.000000pt" viewBox="0 0 512.000000 512.000000"
 preserveAspectRatio="xMidYMid meet">

<g transform="translate(0.000000,512.000000) scale(0.100000,-0.100000)"
fill="#000000" stroke="none">
<path d="M2900 4944 c-55 -20 -132 -75 -149 -106 -9 -19 -261 -135 -1159 -535
-631 -281 -1170 -517 -1199 -523 -96 -22 -183 -104 -217 -203 -42 -125 7 -270
116 -345 121 -82 283 -71 387 27 l34 32 28 -28 c15 -15 289 -331 608 -702
l581 -673 -43 -47 c-24 -25 -48 -55 -55 -66 -11 -20 -11 -20 -30 0 -10 11
-270 314 -576 672 -306 359 -566 657 -576 663 -29 15 -55 12 -84 -11 -20 -15
-26 -29 -26 -57 0 -35 44 -89 639 -784 351 -411 644 -761 651 -778 16 -39 110
-125 155 -141 l35 -13 0 -112 0 -111 -47 -18 c-90 -35 -172 -143 -188 -248
l-7 -47 -117 0 c-208 0 -331 -43 -451 -156 -104 -99 -170 -242 -170 -372 0
-43 5 -58 25 -77 l24 -25 1010 0 1010 0 28 24 c26 22 28 29 25 88 -9 238 -193
453 -429 503 -38 8 -123 15 -190 15 l-123 0 0 30 c0 93 -89 220 -185 261 l-55
24 0 110 0 110 44 18 c184 76 243 315 117 475 -45 56 -121 99 -195 110 l-46 7
-634 735 c-349 404 -632 738 -628 741 4 4 401 190 882 414 532 248 884 417
898 432 31 33 28 69 -8 105 -25 24 -36 29 -58 23 -15 -3 -407 -184 -872 -402
-465 -217 -859 -402 -877 -409 l-32 -14 -21 48 c-12 26 -33 59 -47 75 -16 16
-23 31 -17 36 5 4 248 114 539 244 292 130 737 329 990 442 252 113 462 205
466 205 3 0 11 -19 18 -42 21 -71 71 -148 148 -229 68 -71 118 -104 203 -137
22 -8 34 -37 103 -243 42 -129 77 -239 77 -246 0 -6 -77 -39 -171 -74 -110
-40 -175 -70 -185 -83 -18 -27 -18 -64 2 -112 15 -36 15 -39 -1 -49 -227 -130
-350 -386 -302 -626 31 -159 129 -305 261 -391 64 -41 197 -88 250 -88 66 0
105 86 59 131 -11 11 -48 27 -83 35 -173 40 -299 172 -331 347 -29 156 40 321
175 419 l40 28 25 -52 c40 -81 58 -86 176 -43 68 24 97 31 100 22 2 -7 43
-115 90 -241 47 -126 85 -233 85 -237 0 -4 -38 -22 -85 -40 -86 -32 -125 -63
-125 -99 0 -25 120 -342 137 -362 33 -37 54 -32 415 102 194 72 363 138 375
146 32 20 37 55 18 114 -9 28 -15 53 -14 54 2 2 105 40 229 86 280 103 327
127 416 215 271 270 215 716 -115 916 -99 60 -158 74 -306 74 l-130 -1 -235
-88 c-129 -49 -245 -91 -256 -93 -18 -4 -24 2 -34 34 -17 52 -47 83 -82 83
-15 0 -76 -18 -135 -39 -59 -22 -108 -39 -109 -38 -1 1 -38 111 -82 245 l-81
243 29 42 c47 66 63 150 58 297 -3 108 -7 133 -29 180 -35 76 -80 124 -145
156 -70 34 -169 42 -234 18z m179 -171 c48 -35 71 -99 72 -200 1 -100 -22
-200 -48 -210 -43 -17 -164 86 -224 192 -52 91 -31 185 51 228 43 22 111 18
149 -10z m1474 -1060 c260 -123 327 -464 131 -673 -54 -57 -112 -97 -123 -84
-5 5 -23 50 -41 99 -18 50 -42 100 -53 113 -24 26 -72 29 -104 7 -38 -27 -37
-62 7 -179 23 -60 40 -109 38 -110 -2 -1 -22 -9 -45 -18 l-42 -16 -27 71 c-62
165 -70 177 -121 177 -38 0 -83 -37 -83 -68 0 -11 18 -68 40 -127 22 -59 40
-109 40 -110 0 -1 -18 -7 -40 -14 -22 -6 -43 -13 -46 -14 -3 -1 -14 20 -24 46
-21 54 -43 76 -79 77 -13 0 -109 -32 -213 -70 -105 -39 -192 -69 -193 -68 -5
5 -185 492 -182 494 1 1 85 32 187 69 102 38 195 77 208 88 26 24 29 71 7 123
l-14 35 34 15 c19 8 40 14 48 14 7 0 29 -44 51 -106 42 -112 60 -134 112 -134
37 0 74 38 74 75 0 13 -16 65 -35 115 -19 50 -35 98 -35 105 0 12 49 35 75 35
7 0 29 -47 50 -105 23 -65 45 -111 58 -120 50 -35 127 -1 127 56 0 15 -16 69
-35 120 -20 51 -33 99 -30 107 4 11 25 13 108 10 89 -3 110 -8 170 -35z m-949
-129 c15 -41 26 -77 24 -78 -8 -8 -529 -198 -532 -195 -1 2 -15 37 -29 77 -25
67 -26 73 -9 79 64 26 508 192 512 192 3 1 18 -33 34 -75z m-3046 18 c39 -29
65 -93 57 -144 -9 -49 -58 -102 -108 -116 -79 -22 -168 36 -182 118 -9 55 26
126 75 152 45 24 116 19 158 -10z m3403 -979 c10 -31 19 -59 19 -63 0 -13
-522 -203 -530 -193 -16 19 -52 135 -44 143 5 5 124 51 264 103 206 77 257 92
263 81 5 -8 17 -40 28 -71z m-1780 -876 c106 -71 81 -232 -41 -267 -77 -22
-171 38 -185 117 -9 56 21 125 67 153 46 28 115 27 159 -3z m-5 -813 c37 -18
84 -86 84 -122 0 -22 -3 -22 -161 -22 l-161 0 6 33 c20 100 136 156 232 111z
m522 -314 c135 -31 240 -126 286 -258 l15 -42 -894 0 c-805 0 -895 2 -895 16
0 33 56 131 100 175 53 52 130 96 194 109 60 12 1142 12 1194 0z"/>
</g>
</svg>
