<?xml version="1.0" standalone="no"?>
<!DOCTYPE svg PUBLIC "-//W3C//DTD SVG 20010904//EN"
 "http://www.w3.org/TR/2001/REC-SVG-20010904/DTD/svg10.dtd">
<svg version="1.0" xmlns="http://www.w3.org/2000/svg"
 width="512.000000pt" height="512.000000pt" viewBox="0 0 512.000000 512.000000"
 preserveAspectRatio="xMidYMid meet">

<g transform="translate(0.000000,512.000000) scale(0.100000,-0.100000)"
fill="#000000" stroke="none">
<path d="M1250 4565 l0 -65 1310 0 1310 0 0 65 0 65 -1310 0 -1310 0 0 -65z"/>
<path d="M1287 4308 c-4 -66 -7 -154 -7 -195 0 -70 1 -73 24 -73 21 0 24 6 30
53 3 28 6 103 6 165 l0 112 1220 0 1220 0 0 -119 c0 -65 3 -139 6 -165 6 -40
10 -46 30 -46 23 0 24 3 24 73 0 41 -3 129 -7 195 l-6 122 -1267 0 -1267 0 -6
-122z"/>
<path d="M1315 3905 c-127 -23 -199 -46 -290 -90 -134 -65 -217 -141 -271
-247 l-24 -48 -71 0 c-61 0 -73 -3 -94 -25 -37 -37 -35 -106 4 -146 17 -17 40
-29 55 -29 l26 0 -1 -742 0 -743 -325 -255 c-178 -140 -324 -259 -324 -265 0
-12 20 -35 30 -35 3 0 143 108 311 240 l304 240 3 -82 c3 -114 8 -130 35 -126
21 3 22 9 27 110 l5 108 95 -76 c52 -42 107 -85 122 -96 l28 -19 0 35 c0 34
-7 41 -125 134 l-124 97 -1 738 c0 702 1 737 18 737 13 0 21 -13 30 -47 39
-143 128 -305 201 -362 l39 -31 58 20 c92 32 199 57 313 74 57 8 106 18 109
20 2 3 -1 40 -8 83 -21 134 -25 528 -6 673 9 69 19 135 23 147 5 22 2 23 -48
22 -30 0 -85 -7 -124 -14z"/>
<path d="M3630 3919 c0 -2 7 -42 16 -89 24 -138 30 -515 10 -689 -10 -79 -15
-145 -13 -147 2 -3 51 -12 108 -20 113 -17 221 -42 312 -73 l59 -20 30 22 c72
53 156 195 200 340 17 58 27 77 41 77 16 0 17 -42 17 -737 l-1 -738 -329 -259
c-182 -143 -330 -265 -330 -271 0 -7 7 -18 15 -25 17 -14 9 -20 400 289 l240
189 5 -106 c5 -101 6 -107 27 -110 27 -4 32 12 35 126 l3 83 270 -213 c374
-295 342 -273 360 -258 9 7 15 19 13 27 -2 7 -147 127 -323 266 l-320 252 -3
743 -2 742 26 0 c15 0 38 12 55 29 39 40 41 109 4 146 -21 22 -33 25 -94 25
l-71 0 -24 48 c-77 152 -239 261 -467 317 -92 22 -269 45 -269 34z"/>
<path d="M2495 3355 c-71 -25 -125 -106 -125 -185 0 -34 32 -100 61 -127 97
-89 245 -58 300 62 10 22 19 56 19 75 0 78 -62 159 -138 180 -48 13 -68 12
-117 -5z"/>
<path d="M2301 2895 c-81 -77 -116 -150 -116 -240 1 -56 6 -80 27 -121 30 -57
145 -170 183 -180 30 -7 74 18 76 44 3 36 -5 49 -76 117 -84 80 -98 116 -74
188 l14 42 3 -79 3 -80 74 -71 c84 -80 95 -113 52 -153 -37 -35 -81 -29 -144
19 -29 23 -55 40 -57 38 -2 -2 -14 -24 -27 -49 -31 -62 -38 -203 -14 -320 24
-121 82 -296 108 -326 15 -17 36 -27 64 -31 39 -5 46 -2 79 31 44 44 44 59
-11 231 -29 95 -38 141 -43 223 l-5 102 143 0 143 0 -6 -102 c-4 -80 -14 -130
-43 -223 -54 -172 -54 -187 -10 -231 33 -33 40 -36 79 -31 59 8 80 38 122 169
72 227 85 412 36 508 -13 25 -25 47 -27 49 -2 2 -28 -15 -57 -38 -64 -49 -111
-55 -145 -18 -40 43 -30 73 53 152 l74 71 3 80 3 79 14 -42 c24 -72 10 -108
-74 -188 -71 -68 -79 -81 -76 -117 2 -26 46 -51 76 -44 38 10 153 123 183 180
21 41 26 65 27 121 0 90 -35 163 -116 240 l-58 55 -201 0 -201 0 -58 -55z"/>
<path d="M3844 2803 c4 -38 11 -135 16 -218 14 -191 24 -257 50 -310 30 -62
133 -178 234 -265 l88 -75 -596 -3 -596 -2 0 -30 0 -30 665 0 c768 0 721 -8
578 100 -117 88 -282 254 -315 315 -31 59 -41 125 -59 398 l-12 187 -29 0 -29
0 5 -67z"/>
<path d="M1355 2701 c-162 -41 -226 -216 -128 -348 l24 -33 144 0 144 0 26 28
c55 58 65 162 25 242 -42 83 -148 133 -235 111z"/>
<path d="M1707 2514 c-4 -4 -7 -17 -7 -29 0 -16 -9 -25 -32 -31 -32 -10 -33
-11 -36 -75 -3 -58 0 -67 23 -89 l25 -23 0 52 0 52 138 -3 137 -3 3 -97 3 -98
-121 0 -120 0 0 -30 0 -30 178 0 c125 0 182 4 190 12 8 8 12 58 12 159 0 179
0 179 -122 179 -76 0 -77 0 -80 28 -3 27 -3 27 -93 30 -50 1 -94 0 -98 -4z
m353 -239 c23 -28 -9 -72 -45 -59 -36 14 -24 74 15 74 10 0 23 -7 30 -15z"/>
<path d="M1933 2488 c2 -8 20 -13 42 -13 22 0 40 5 43 13 2 8 -10 12 -43 12
-33 0 -45 -4 -42 -12z"/>
<path d="M1092 2274 c-105 -52 -202 -193 -202 -292 0 -81 62 -167 151 -213
l39 -19 0 89 c0 66 -4 92 -15 101 -22 18 -18 70 8 110 l22 35 5 -760 c4 -592
8 -765 18 -782 28 -50 118 -69 168 -37 54 36 54 36 54 524 l0 450 25 0 25 0 0
-461 0 -461 34 -34 c29 -29 41 -34 79 -34 30 0 53 7 72 22 55 43 55 38 55 673
0 322 3 585 8 585 4 0 16 -7 27 -16 31 -23 91 -35 173 -36 71 0 78 2 100 28
18 21 22 34 18 58 -9 48 -39 66 -106 66 -75 0 -114 15 -130 48 -6 15 -16 86
-20 159 -14 224 -13 223 -328 223 -225 0 -229 0 -280 -26z"/>
<path d="M2434 2239 c-16 -27 14 -184 67 -346 29 -89 32 -93 59 -93 28 0 30 4
65 111 39 121 73 295 62 322 -5 15 -22 17 -126 17 -76 0 -122 -4 -127 -11z"/>
<path d="M1729 2033 c-7 -19 -7 -41 1 -75 18 -75 28 -73 45 10 6 27 11 32 36
32 29 0 29 -1 29 -55 0 -48 2 -55 20 -55 18 0 20 7 20 55 l0 55 35 0 c19 0 35
-4 35 -9 0 -4 16 -93 35 -197 19 -103 35 -196 35 -206 0 -17 -11 -18 -157 -16
-178 3 -161 -7 -147 88 6 42 4 47 -19 57 -25 12 -26 11 -36 -38 -6 -28 -11
-118 -10 -202 1 -149 1 -151 14 -92 7 33 16 77 19 98 l7 37 173 0 172 0 78
-422 c44 -233 81 -429 83 -436 7 -17 42 -15 49 3 5 13 -242 1370 -253 1388 -2
4 -60 7 -129 7 l-124 0 -11 -27z"/>
<path d="M803 1943 c-70 -50 -70 -73 -3 -73 57 0 63 7 58 69 l-3 42 -52 -38z"/>
</g>
</svg>
