<?xml version="1.0" standalone="no"?>
<!DOCTYPE svg PUBLIC "-//W3C//DTD SVG 20010904//EN"
 "http://www.w3.org/TR/2001/REC-SVG-20010904/DTD/svg10.dtd">
<svg version="1.0" xmlns="http://www.w3.org/2000/svg"
 width="512.000000pt" height="512.000000pt" viewBox="0 0 512.000000 512.000000"
 preserveAspectRatio="xMidYMid meet">

<g transform="translate(0.000000,512.000000) scale(0.100000,-0.100000)"
fill="#000000" stroke="none">
<path d="M2143 5026 c-205 -39 -368 -126 -513 -275 -102 -105 -170 -215 -216
-348 -46 -134 -58 -223 -51 -378 13 -301 118 -606 281 -811 250 -316 652 -419
1004 -258 333 152 571 558 600 1023 14 216 -7 345 -84 510 -56 120 -112 198
-212 293 -120 114 -265 193 -432 233 -91 22 -288 28 -377 11z"/>
<path d="M1417 2795 c-244 -41 -465 -158 -631 -335 -121 -129 -197 -266 -244
-440 -26 -95 -26 -96 -30 -580 -4 -539 -1 -577 60 -700 42 -87 151 -196 238
-238 127 -62 126 -62 1007 -60 l798 3 17 123 18 124 -190 196 c-218 225 -249
273 -258 390 -11 155 70 295 210 362 27 14 141 38 313 68 l270 47 126 240
c139 265 175 312 276 361 51 26 69 29 153 29 83 0 103 -4 156 -28 101 -47 139
-96 269 -342 64 -121 119 -222 122 -225 10 -9 -7 152 -22 219 -35 145 -113
296 -218 420 -165 193 -427 334 -691 370 -119 17 -1648 13 -1749 -4z"/>
<path d="M3507 2073 c-8 -10 -83 -146 -165 -303 l-150 -285 -329 -57 c-285
-49 -330 -60 -345 -78 -38 -47 -30 -58 215 -312 214 -221 232 -243 229 -272
-2 -17 -21 -154 -43 -305 -21 -151 -39 -289 -39 -308 0 -38 29 -73 61 -73 11
0 154 66 318 146 l297 146 293 -146 c161 -80 302 -146 315 -146 12 0 33 11 46
25 l24 26 -43 302 c-24 166 -45 316 -48 333 -4 28 11 46 225 266 127 130 233
245 236 256 9 28 -10 71 -36 81 -13 5 -147 30 -298 56 -151 25 -293 50 -315
54 l-40 6 -152 290 c-84 160 -161 296 -170 303 -24 17 -67 15 -86 -5z"/>
</g>
</svg>
