<svg width="40" height="40" viewBox="0 0 40 40" fill="none" xmlns="http://www.w3.org/2000/svg">
<path d="M14.4083 34.1667C14.7684 35.3699 15.5069 36.4248 16.5143 37.1749C17.5217 37.9249 18.7441 38.33 20 38.33C21.2559 38.33 22.4783 37.9249 23.4857 37.1749C24.4931 36.4248 25.2316 35.3699 25.5917 34.1667H14.4083ZM5 32.5H35V27.5L31.6667 22.5V14.1667C31.6667 12.6346 31.3649 11.1175 30.7786 9.70203C30.1923 8.28656 29.3329 7.00044 28.2496 5.91709C27.1662 4.83374 25.8801 3.97438 24.4646 3.38807C23.0492 2.80177 21.5321 2.5 20 2.5C18.4679 2.5 16.9508 2.80177 15.5354 3.38807C14.1199 3.97438 12.8338 4.83374 11.7504 5.91709C10.6671 7.00044 9.80771 8.28656 9.22141 9.70203C8.6351 11.1175 8.33333 12.6346 8.33333 14.1667V22.5L5 27.5V32.5Z" fill="white"/>
</svg>
