<?xml version="1.0" standalone="no"?>
<!DOCTYPE svg PUBLIC "-//W3C//DTD SVG 20010904//EN"
 "http://www.w3.org/TR/2001/REC-SVG-20010904/DTD/svg10.dtd">
<svg version="1.0" xmlns="http://www.w3.org/2000/svg"
 width="512.000000pt" height="512.000000pt" viewBox="0 0 512.000000 512.000000"
 preserveAspectRatio="xMidYMid meet">

<g transform="translate(0.000000,512.000000) scale(0.100000,-0.100000)"
fill="#000000" stroke="none">
<path d="M864 4456 c-59 -27 -116 -90 -132 -145 -9 -28 -12 -461 -12 -1670 l0
-1632 25 -24 c32 -33 78 -33 110 0 l25 24 0 1631 0 1631 25 24 24 25 1831 0
1831 0 24 -25 c24 -23 25 -29 25 -160 l0 -135 -1695 0 -1696 0 -24 -25 c-16
-15 -25 -36 -25 -55 0 -19 9 -40 25 -55 l24 -25 1696 0 1695 0 0 -1495 0
-1496 -25 -24 -24 -25 -1991 0 -1991 0 -24 -25 c-33 -32 -33 -78 0 -110 l24
-25 1992 0 c1534 0 2001 3 2033 12 55 16 138 99 154 154 17 58 18 3448 0 3505
-16 55 -73 118 -132 145 l-51 24 -1845 0 -1845 0 -51 -24z"/>
<path d="M3705 4215 c-16 -15 -25 -36 -25 -55 0 -19 9 -40 25 -55 15 -16 36
-25 55 -25 19 0 40 9 55 25 16 15 25 36 25 55 0 19 -9 40 -25 55 -15 16 -36
25 -55 25 -19 0 -40 -9 -55 -25z"/>
<path d="M4025 4215 c-16 -15 -25 -36 -25 -55 0 -19 9 -40 25 -55 15 -16 36
-25 55 -25 19 0 40 9 55 25 16 15 25 36 25 55 0 19 -9 40 -25 55 -15 16 -36
25 -55 25 -19 0 -40 -9 -55 -25z"/>
<path d="M4345 4215 c-16 -15 -25 -36 -25 -55 0 -19 9 -40 25 -55 15 -16 36
-25 55 -25 19 0 40 9 55 25 16 15 25 36 25 55 0 19 -9 40 -25 55 -15 16 -36
25 -55 25 -19 0 -40 -9 -55 -25z"/>
<path d="M985 3975 c-50 -49 -15 -135 55 -135 41 0 80 39 80 80 0 41 -39 80
-80 80 -19 0 -40 -9 -55 -25z"/>
<path d="M2421 3564 c-21 -27 -21 -28 -21 -1204 0 -1176 0 -1177 21 -1204 29
-37 89 -37 118 0 21 27 21 28 21 1204 0 1176 0 1177 -21 1204 -16 20 -29 26
-59 26 -30 0 -43 -6 -59 -26z"/>
<path d="M1605 3511 c-131 -35 -229 -150 -242 -284 -6 -75 6 -124 49 -197 l33
-55 -71 -70 c-82 -81 -136 -179 -159 -290 -23 -108 -20 -161 10 -190 24 -25
26 -25 215 -25 189 0 191 0 215 25 33 32 33 78 0 110 -23 24 -29 25 -154 25
l-130 0 15 53 c47 157 167 267 294 267 127 0 247 -110 294 -267 l15 -53 -50 0
c-40 0 -55 -5 -74 -25 -33 -32 -33 -78 0 -110 23 -24 31 -25 135 -25 104 0
112 1 135 25 30 29 33 82 10 190 -24 112 -77 209 -160 291 -66 65 -71 73 -58
90 50 66 67 119 67 204 0 73 -4 92 -27 137 -56 108 -151 171 -265 178 -37 2
-80 1 -97 -4z m138 -165 c103 -43 128 -177 48 -257 -65 -65 -157 -65 -222 0
-124 123 13 325 174 257z"/>
<path d="M2825 3415 c-16 -15 -25 -36 -25 -55 0 -19 9 -40 25 -55 15 -16 36
-25 55 -25 19 0 40 9 55 25 16 15 25 36 25 55 0 19 -9 40 -25 55 -15 16 -36
25 -55 25 -19 0 -40 -9 -55 -25z"/>
<path d="M3465 3415 c-16 -15 -25 -36 -25 -55 0 -19 9 -40 25 -55 l24 -25 391
0 391 0 24 25 c16 15 25 36 25 55 0 19 -9 40 -25 55 l-24 25 -391 0 -391 0
-24 -25z"/>
<path d="M2825 2775 c-16 -15 -25 -36 -25 -55 0 -19 9 -40 25 -55 l24 -25 711
0 711 0 24 25 c16 15 25 36 25 55 0 19 -9 40 -25 55 l-24 25 -711 0 -711 0
-24 -25z"/>
<path d="M2825 2135 c-50 -49 -15 -135 55 -135 41 0 80 39 80 80 0 41 -39 80
-80 80 -19 0 -40 -9 -55 -25z"/>
<path d="M3465 2135 c-16 -15 -25 -36 -25 -55 0 -19 9 -40 25 -55 l24 -25 391
0 391 0 24 25 c16 15 25 36 25 55 0 19 -9 40 -25 55 l-24 25 -391 0 -391 0
-24 -25z"/>
<path d="M1145 2055 c-16 -15 -25 -36 -25 -55 0 -19 9 -40 25 -55 23 -24 28
-25 175 -25 147 0 152 1 175 25 16 15 25 36 25 55 0 19 -9 40 -25 55 -23 24
-28 25 -175 25 -147 0 -152 -1 -175 -25z"/>
<path d="M1705 2055 c-16 -15 -25 -36 -25 -55 0 -19 9 -40 25 -55 l24 -25 231
0 231 0 24 25 c16 15 25 36 25 55 0 19 -9 40 -25 55 l-24 25 -231 0 -231 0
-24 -25z"/>
<path d="M1145 1575 c-16 -15 -25 -36 -25 -55 0 -19 9 -40 25 -55 l24 -25 511
0 511 0 24 25 c16 15 25 36 25 55 0 19 -9 40 -25 55 l-24 25 -511 0 -511 0
-24 -25z"/>
<path d="M2825 1415 c-16 -15 -25 -36 -25 -55 0 -19 9 -40 25 -55 l24 -25 711
0 711 0 24 25 c16 15 25 36 25 55 0 19 -9 40 -25 55 l-24 25 -711 0 -711 0
-24 -25z"/>
<path d="M345 775 c-16 -15 -25 -36 -25 -55 0 -19 9 -40 25 -55 49 -50 135
-15 135 55 0 41 -39 80 -80 80 -19 0 -40 -9 -55 -25z"/>
</g>
</svg>
