<?xml version="1.0" standalone="no"?>
<!DOCTYPE svg PUBLIC "-//W3C//DTD SVG 20010904//EN"
 "http://www.w3.org/TR/2001/REC-SVG-20010904/DTD/svg10.dtd">
<svg version="1.0" xmlns="http://www.w3.org/2000/svg"
 width="512.000000pt" height="512.000000pt" viewBox="0 0 512.000000 512.000000"
 preserveAspectRatio="xMidYMid meet">

<g transform="translate(0.000000,512.000000) scale(0.100000,-0.100000)"
fill="#000000" stroke="none">
<path d="M2355 4914 c-16 -2 -82 -11 -145 -20 -396 -54 -812 -237 -1136 -500
-107 -86 -280 -259 -359 -359 -282 -355 -458 -787 -506 -1244 -17 -160 -7
-463 20 -616 42 -236 115 -463 209 -651 46 -92 57 -103 106 -111 71 -11 129
37 128 106 0 22 -20 79 -52 145 -272 571 -264 1261 21 1837 320 647 934 1084
1659 1180 133 18 420 15 555 -5 447 -67 809 -239 1162 -553 85 -75 97 -83 134
-83 33 0 47 6 75 34 l34 34 0 327 0 327 -34 34 c-28 28 -42 34 -76 34 -34 0
-48 -6 -76 -34 l-34 -34 0 -176 c0 -97 -2 -176 -5 -176 -3 0 -39 25 -80 55
-299 221 -645 364 -1045 431 -91 15 -484 28 -555 18z"/>
<path d="M2390 4275 c-178 -38 -312 -109 -444 -234 -122 -117 -203 -253 -248
-416 -19 -72 -22 -110 -26 -371 l-4 -291 -107 -6 c-71 -3 -124 -12 -159 -25
-100 -38 -183 -121 -225 -224 -22 -52 -22 -63 -25 -656 -3 -657 -2 -672 53
-767 35 -59 105 -122 173 -153 l57 -27 1125 0 1125 0 56 26 c107 50 185 144
214 256 14 53 15 142 13 665 -3 593 -3 604 -25 656 -42 103 -125 186 -225 224
-35 13 -88 22 -159 25 l-107 6 -4 291 c-4 261 -7 299 -26 371 -25 91 -76 202
-123 272 -48 71 -166 190 -233 235 -75 52 -203 111 -286 133 -88 23 -304 29
-390 10z m369 -240 c202 -64 371 -231 432 -425 29 -92 39 -204 39 -442 l0
-208 -670 0 -670 0 0 208 c0 238 10 350 39 442 58 186 216 347 408 417 134 49
284 51 422 8z m905 -1328 c79 -45 76 -17 76 -683 l0 -591 -22 -33 c-13 -18
-36 -43 -51 -54 l-28 -21 -1079 0 -1079 0 -28 21 c-15 11 -38 36 -50 54 l-23
33 0 589 c0 663 -3 637 74 683 l41 25 1065 0 1065 0 39 -23z"/>
<path d="M1762 2237 c-51 -19 -98 -62 -122 -112 -32 -67 -26 -166 15 -224 44
-64 105 -96 185 -96 123 0 211 81 218 200 5 82 -11 128 -62 179 -61 61 -153
82 -234 53z"/>
<path d="M2482 2237 c-51 -19 -98 -62 -122 -112 -32 -67 -26 -166 15 -224 44
-64 105 -96 185 -96 123 0 211 81 218 200 5 82 -11 128 -62 179 -61 61 -153
82 -234 53z"/>
<path d="M3202 2237 c-51 -19 -98 -62 -122 -112 -32 -67 -26 -166 15 -224 44
-64 105 -96 185 -96 123 0 211 81 218 200 5 82 -11 128 -62 179 -61 61 -153
82 -234 53z"/>
<path d="M4502 3697 c-62 -35 -70 -101 -25 -192 17 -33 51 -112 76 -175 329
-831 87 -1802 -597 -2387 -430 -368 -994 -556 -1543 -513 -511 40 -952 234
-1334 588 -49 45 -67 55 -104 60 -41 4 -48 1 -80 -31 l-35 -35 0 -327 0 -327
34 -34 c28 -28 42 -34 76 -34 34 0 48 6 76 34 l34 34 0 176 c0 97 2 176 5 176
3 0 42 -27 87 -61 294 -218 679 -372 1073 -431 138 -20 522 -17 660 6 278 45
494 115 727 233 696 352 1170 1026 1273 1806 29 227 16 568 -31 782 -62 278
-199 616 -263 650 -36 18 -78 19 -109 2z"/>
</g>
</svg>
