<svg width="40" height="40" viewBox="0 0 40 40" fill="none" xmlns="http://www.w3.org/2000/svg">
<path fill-rule="evenodd" clip-rule="evenodd" d="M40 20C40 31.0456 31.0456 40 20 40C8.9543 40 0 31.0456 0 20C0 8.9543 8.9543 0 20 0C31.0456 0 40 8.9543 40 20ZM26 14C26 17.3138 23.3138 20 20 20C16.6862 20 14 17.3138 14 14C14 10.6863 16.6862 8 20 8C23.3138 8 26 10.6863 26 14ZM20 37C23.568 37 26.8794 35.9008 29.6138 34.0224C30.8216 33.1928 31.3376 31.6124 30.6356 30.3264C29.18 27.6606 26.1804 26 19.9998 26C13.8194 26 10.8199 27.6604 9.36428 30.3264C8.6621 31.6124 9.1782 33.1926 10.3859 34.0222C13.1204 35.9006 16.4318 37 20 37Z" fill="white"/>
</svg>
